<?xml version="1.0" encoding="UTF-8"?>
<svg width="32" height="32" viewBox="0 0 32 32" xmlns="http://www.w3.org/2000/svg">
    <!-- 背景圆形 -->
    <circle cx="16" cy="16" r="16" fill="#2196F3"/>
    
    <!-- 音符图案 -->
    <path d="M20 8 L20 20 Q20 22 18 22 Q16 22 16 20 Q16 18 18 18 Q19 18 20 18.5 L20 12 L12 14 L12 22 Q12 24 10 24 Q8 24 8 22 Q8 20 10 20 Q11 20 12 20.5 L12 12 L20 10 Z" 
          fill="white"/>
    
    <!-- 代码符号 -->
    <path d="M24 16 L22 18 L24 20 M8 16 L10 18 L8 20" 
          stroke="white" 
          stroke-width="1.5" 
          fill="none"/>
</svg> 